<svg width="72" height="56" viewBox="0 0 72 56" fill="none" xmlns="http://www.w3.org/2000/svg">
<path fill-rule="evenodd" clip-rule="evenodd" d="M36 10C34.896 10 34 10.896 34 12V28H44C45.104 28 46 27.104 46 26C46 24.896 45.104 24 44 24H38V12C38 10.896 37.104 10 36 10Z" fill="#005BFF"/>
<mask id="mask0" mask-type="alpha" maskUnits="userSpaceOnUse" x="14" y="2" width="44" height="52">
<path fill-rule="evenodd" clip-rule="evenodd" d="M14.0005 2H58V53.9999H14.0005V2Z" fill="white"/>
</mask>
<g mask="url(#mask0)">
<path fill-rule="evenodd" clip-rule="evenodd" d="M49.1055 46.211C48.1175 46.705 47.7175 47.906 48.2105 48.895L48.7645 50H23.4185L28.7115 40.582L27.0015 39.593C21.4495 36.381 18.0005 30.406 18.0005 24C18.0005 14.075 26.0745 6 36.0005 6C45.9255 6 54.0005 14.075 54.0005 24C54.0005 30.406 50.5505 36.381 44.9985 39.593C41.7575 41.468 37.8975 42.278 34.1975 41.911C33.1055 41.8 32.1195 42.604 32.0095 43.704C31.9005 44.803 32.7025 45.782 33.8025 45.892C34.5255 45.963 35.2655 46 36.0005 46C39.8675 46 43.6715 44.982 47.0015 43.056C53.7855 39.131 58.0005 31.83 58.0005 24C58.0005 11.869 48.1305 2 36.0005 2C23.8695 2 14.0005 11.869 14.0005 24C14.0005 31.167 17.5315 37.892 23.3325 41.988L16.5815 54H55.2355L51.7895 47.106C51.2935 46.117 50.0925 45.717 49.1055 46.211Z" fill="#005BFF"/>
</g>
</svg>
