<svg width="72" height="56" viewBox="0 0 72 56" fill="none" xmlns="http://www.w3.org/2000/svg">
<path d="M50 25V21C55 21 59 17 59 12V11H50V7H63V12C63 19.2 57.2 25 50 25Z" fill="#005BFF"/>
<path d="M22 25C14.8 25 9 19.2 9 12V7H22V11H13V12C13 17 17 21 22 21V25Z" fill="#005BFF"/>
<path d="M50 54H22V44H24C27.3 44 30 41.3 30 38V37.8C24.3 36.8 20 31.9 20 26V2H43C44.1 2 45 2.9 45 4C45 5.1 44.1 6 43 6H24V26C24 30.4 27.6 34 32 34H34V38C34 42.8 30.6 46.9 26 47.8V50H46V47.8C41.4 46.9 38 42.8 38 38V34H40C44.4 34 48 30.4 48 26V4C48 2.9 48.9 2 50 2C51.1 2 52 2.9 52 4V26C52 31.9 47.7 36.9 42 37.8V38C42 41.3 44.7 44 48 44H50V54Z" fill="#005BFF"/>
</svg>
